<svg width="175" height="176" fill="none" xmlns="http://www.w3.org/2000/svg"><path d="M144.776 121.59c-9.191 5.662-19.3 10.164-30.188 13.267a121.162 121.162 0 01-22.256 4.158 131.766 131.766 0 0012.695-16.649 102.07 102.07 0 005.59-1.429 106.188 106.188 0 0025.54-11.051 108.989 108.989 0 018.619 11.704zM72.338 6.023C82.41 31.229 83.36 58.058 76.592 82.645a126.692 126.692 0 01-3.097-6.108C61.773 51.715 59.26 24.924 64.557 0a16.304 16.304 0 007.778 6.023" fill="#032A60"/><path d="M172.608 175.929a119.383 119.383 0 00-4.529-28.663c-3.286-11.528-8.159-22.174-14.314-31.766a116.672 116.672 0 00-8.547-11.691 119.62 119.62 0 00-22.923-21.236 120.339 120.339 0 00-10.807-6.805 122.045 122.045 0 01-2.875 10.865 121.435 121.435 0 01-20.106 38.173 121.087 121.087 0 01-13.426 14.549c-13.4 12.307-22.437 19.429-47.973 28.847-3.954 1.46-23.045 7.013-27.108 7.731 27.894-10.858 47.496-24.802 59.596-38.415a119.599 119.599 0 0010.143-13.127 121.017 121.017 0 0018.748-47.068 118.41 118.41 0 001.347-11 120.08 120.08 0 00-1.524-30.055 121.42 121.42 0 0137.867 18.853c13.062 9.677 24.243 22.018 32.61 36.534a120.44 120.44 0 016.809 13.729 124.066 124.066 0 014.746 13.58c5.478 19.207 5.978 38.656 2.266 56.969" fill="#032A60"/></svg>