<svg width="314" height="312" fill="none" xmlns="http://www.w3.org/2000/svg"><g filter="url(#filter0_ddd_1_12)"><circle cx="157" cy="156" r="150" fill="#fff"/><path d="M209.776 171.59c-9.191 5.662-19.3 10.164-30.188 13.267a121.115 121.115 0 01-22.256 4.158 131.652 131.652 0 0012.695-16.649c1.876-.424 3.741-.9 5.59-1.429a106.186 106.186 0 0025.54-11.051 108.93 108.93 0 018.619 11.704zM137.338 56.023c10.072 25.206 11.022 52.035 4.254 76.622a126.674 126.674 0 01-3.097-6.108C126.773 101.715 124.26 74.924 129.557 50a16.306 16.306 0 007.778 6.023" fill="#032A60"/><path d="M237.608 225.929a119.387 119.387 0 00-4.529-28.663c-3.286-11.528-8.159-22.174-14.314-31.766a116.699 116.699 0 00-8.547-11.691 119.61 119.61 0 00-22.923-21.236 120.228 120.228 0 00-10.807-6.805 121.966 121.966 0 01-2.875 10.865 121.438 121.438 0 01-20.106 38.173 121.1 121.1 0 01-13.426 14.549c-13.4 12.307-22.437 19.429-47.973 28.847-3.954 1.46-23.045 7.013-27.108 7.731 27.894-10.858 47.496-24.802 59.596-38.415a119.608 119.608 0 0010.143-13.127 121.02 121.02 0 0018.748-47.068c.62-3.644 1.07-7.314 1.347-11a120.11 120.11 0 00-1.524-30.055 121.422 121.422 0 0137.867 18.853c13.062 9.677 24.243 22.018 32.61 36.534a120.427 120.427 0 016.809 13.729 124.1 124.1 0 014.746 13.58c5.478 19.207 5.978 38.656 2.266 56.969" fill="#032A60"/></g><defs><filter id="filter0_ddd_1_12" x="0" y="0" width="314" height="312" filterUnits="userSpaceOnUse" color-interpolation-filters="sRGB"><feFlood flood-opacity="0" result="BackgroundImageFix"/><feColorMatrix in="SourceAlpha" values="0 0 0 0 0 0 0 0 0 0 0 0 0 0 0 0 0 0 127 0" result="hardAlpha"/><feOffset dx="-3" dy="-2"/><feGaussianBlur stdDeviation="2"/><feComposite in2="hardAlpha" operator="out"/><feColorMatrix values="0 0 0 0 0 0 0 0 0 0 0 0 0 0 0 0 0 0 0.06 0"/><feBlend in2="BackgroundImageFix" result="effect1_dropShadow_1_12"/><feColorMatrix in="SourceAlpha" values="0 0 0 0 0 0 0 0 0 0 0 0 0 0 0 0 0 0 127 0" result="hardAlpha"/><feOffset dx="3" dy="2"/><feGaussianBlur stdDeviation="2"/><feComposite in2="hardAlpha" operator="out"/><feColorMatrix values="0 0 0 0 0 0 0 0 0 0 0 0 0 0 0 0 0 0 0.06 0"/><feBlend in2="effect1_dropShadow_1_12" result="effect2_dropShadow_1_12"/><feColorMatrix in="SourceAlpha" values="0 0 0 0 0 0 0 0 0 0 0 0 0 0 0 0 0 0 127 0" result="hardAlpha"/><feOffset/><feGaussianBlur stdDeviation="3"/><feComposite in2="hardAlpha" operator="out"/><feColorMatrix values="0 0 0 0 0 0 0 0 0 0 0 0 0 0 0 0 0 0 0.08 0"/><feBlend in2="effect2_dropShadow_1_12" result="effect3_dropShadow_1_12"/><feBlend in="SourceGraphic" in2="effect3_dropShadow_1_12" result="shape"/></filter></defs></svg>