<svg width="45" height="35" fill="none" xmlns="http://www.w3.org/2000/svg"><g clip-path="url(#clip0_2_15)"><path d="M43.375 11.323c0 1.04-.094 2.124-.282 3.256-1.035 7.078-4.373 13.59-10.014 19.534l-2.821-2.123c3.385-3.586 5.125-6.794 5.219-9.626-.094-1.604-1.27-2.736-3.527-3.397a27.82 27.82 0 01-2.116-.707c-3.667-1.699-5.5-4.577-5.5-8.635 0-1.51.329-2.925.987-4.246C27.013 1.792 29.741 0 33.501 0c1.317 0 2.54.236 3.668.708 4.137 1.51 6.206 5.048 6.206 10.615zm-22.708 0c0 1.04-.095 2.124-.283 3.256-1.034 7.078-4.372 13.59-10.014 19.534L7.549 31.99c3.385-3.586 5.124-6.794 5.219-9.626-.095-1.604-1.27-2.736-3.527-3.397a27.801 27.801 0 01-2.115-.707c-3.668-1.699-5.501-4.577-5.501-8.635 0-1.51.329-2.925.988-4.246C4.305 1.792 7.033 0 10.793 0c1.316 0 2.538.236 3.667.708 4.137 1.51 6.207 5.048 6.207 10.615z" fill="#D9D9D9"/></g><defs><clipPath id="clip0_2_15"><path fill="#fff" d="M0 0h45v34.113H0z"/></clipPath></defs></svg>