<svg width="53" height="54" fill="none" xmlns="http://www.w3.org/2000/svg"><path fill-rule="evenodd" clip-rule="evenodd" d="M41.33.001L41.329 0l.004.001h-.001zm0 0c.148.069.301.124.454.179.28.1.559.2.803.383.891.667 1.33 1.559 1.33 2.669v3.643c.001 2.428.002 4.856 0 7.285 0 .751-.41 1.238-1.023 1.247-.628.009-1.046-.492-1.046-1.277V3.513c0-1.121-.323-1.44-1.457-1.44H3.517c-1.125 0-1.448.323-1.448 1.45v45.99c0 1.132.32 1.455 1.442 1.455h36.873c1.154 0 1.464-.315 1.464-1.486v-6.887a2.793 2.793 0 01.003-.259c.044-.63.484-1.074 1.047-1.065a1.018 1.018 0 011.013 1.04l.007 1.257c.013 2.206.027 4.41-.032 6.615-.04 1.523-1.268 2.676-2.798 2.836-.22.023-.44.022-.661.022H3.905c-2.336 0-3.047-.471-3.905-2.59V2.592A2.827 2.827 0 012.59 0h38.74zM15.496 15.323h14.299c.205 0 .41 0 .616.002.41 0 .82.002 1.231-.002.903-.007 1.474-.554 1.463-1.392-.012-.837-.576-1.353-1.493-1.362H15.298a2.493 2.493 0 00-.367.012c-.656.087-1.127.65-1.137 1.348-.01.721.48 1.31 1.165 1.386.13.014.263.012.395.01l.14-.002zm5.569 7.36c-1.944 0-3.889 0-5.832-.003-.942-.001-1.544-.597-1.423-1.383.096-.626.568-1.038 1.264-1.056.512-.014 1.024-.01 1.537-.008.222.002.445.003.668.003h14.418c.857.015 1.416.507 1.408 1.234-.007.726-.565 1.209-1.428 1.21-1.973.003-3.945.003-5.917.002h-2.366.002-2.331zm-5.57 7.66H30.39c.397.002.794.002 1.191 0 .955-.003 1.534-.535 1.523-1.393-.01-.855-.581-1.356-1.551-1.361H15.408l-.11-.001a2.493 2.493 0 00-.367.013c-.656.086-1.128.65-1.137 1.348-.01.721.48 1.31 1.165 1.385.13.014.263.012.395.01l.14-.001zM9.967 12.567c.734-.003 1.365.621 1.375 1.358.01.765-.644 1.42-1.4 1.4-.722-.018-1.367-.679-1.358-1.39.008-.714.667-1.364 1.385-1.367h-.002zm-.034 10.115c.727.023 1.383-.524 1.41-1.175h-.002c.028-.662-.552-1.23-1.296-1.274-.735-.044-1.445.541-1.461 1.204-.014.631.627 1.222 1.35 1.245zm1.714 6.28c.002.738-.68 1.37-1.498 1.384-.822.014-1.59-.677-1.565-1.41.024-.715.764-1.358 1.558-1.349.816.009 1.505.637 1.507 1.375h-.002zm40.77-1.375a8.583 8.583 0 11-17.166 0 8.583 8.583 0 0117.166 0zm-13.3-4.159a.99.99 0 00-.361 1.352l4.558 7.895a.99.99 0 00.878.495.99.99 0 00.878-.495l4.558-7.895a.99.99 0 10-1.714-.99l-3.722 6.448-3.723-6.447a.99.99 0 00-1.351-.363z" fill="#fff"/></svg>