<svg width="584" height="527" viewBox="0 0 584 587" fill="none" xmlns="http://www.w3.org/2000/svg"><path d="M482.42 405.163c-30.624 18.866-64.309 33.866-100.59 44.206a403.577 403.577 0 01-74.162 13.855 438.914 438.914 0 0042.302-55.476 343.641 343.641 0 0018.628-4.762c30.579-8.719 59.06-21.202 85.103-36.826a362.877 362.877 0 0128.719 39.003z" fill="url(#paint0_linear_15_232)"/><path d="M241.045 20.068c33.561 83.992 36.724 173.392 14.173 255.32a422.182 422.182 0 01-10.318-20.352C205.841 172.326 197.462 83.051 215.115 0c6.508 9.41 15.636 16.27 25.919 20.068" fill="url(#paint1_linear_15_232)"/><g filter="url(#filter0_i_15_232)"><path d="M575.164 586.23c-1.088-31.655-6.02-63.685-15.091-95.511-10.952-38.413-27.188-73.889-47.698-105.851a388.56 388.56 0 00-28.481-38.957c-22.382-26.996-48.142-50.749-76.384-70.761a401.045 401.045 0 00-36.01-22.676c-2.63 12.234-5.85 24.309-9.58 36.203a404.615 404.615 0 01-66.997 127.2c-13.503 17.291-28.469 33.504-44.739 48.482-44.649 41.009-74.763 64.739-159.854 96.123-13.175 4.864-76.793 23.367-90.33 25.76 92.949-36.18 158.267-82.643 198.585-128.006a398.377 398.377 0 0033.798-43.742c31.452-46.996 52.926-100.454 62.472-156.838a394.095 394.095 0 004.49-36.656 400.131 400.131 0 00-5.079-100.148 404.542 404.542 0 0186.1 36.69 402.444 402.444 0 0140.08 26.134c43.527 32.245 80.783 73.368 108.663 121.735 8.459 14.604 16.021 29.876 22.688 45.749a413.095 413.095 0 0115.816 45.25c18.254 64.003 19.921 128.811 7.551 189.832" fill="url(#paint2_linear_15_232)"/></g><defs><linearGradient id="paint0_linear_15_232" x1="395.044" y1="366.16" x2="395" y2="463" gradientUnits="userSpaceOnUse"><stop offset=".256" stop-color="#0352FB"/><stop offset="1" stop-color="#476AB5" stop-opacity="0"/></linearGradient><linearGradient id="paint1_linear_15_232" x1="237.994" y1="0" x2="237.994" y2="275.388" gradientUnits="userSpaceOnUse"><stop stop-color="#0051FF"/><stop offset="1" stop-color="#476AB5" stop-opacity="0"/></linearGradient><linearGradient id="paint2_linear_15_232" x1="291.567" y1="120.852" x2="163.5" y2="526.5" gradientUnits="userSpaceOnUse"><stop offset=".089" stop-color="#0857FE"/><stop offset=".992" stop-color="#476AB5" stop-opacity="0"/></linearGradient><filter id="filter0_i_15_232" x="0" y="120.852" width="583.134" height="469.39" filterUnits="userSpaceOnUse" color-interpolation-filters="sRGB"><feFlood flood-opacity="0" result="BackgroundImageFix"/><feBlend in="SourceGraphic" in2="BackgroundImageFix" result="shape"/><feColorMatrix in="SourceAlpha" values="0 0 0 0 0 0 0 0 0 0 0 0 0 0 0 0 0 0 127 0" result="hardAlpha"/><feOffset dy="4"/><feGaussianBlur stdDeviation="2"/><feComposite in2="hardAlpha" operator="arithmetic" k2="-1" k3="1"/><feColorMatrix values="0 0 0 0 0 0 0 0 0 0 0 0 0 0 0 0 0 0 0.25 0"/><feBlend in2="shape" result="effect1_innerShadow_15_232"/></filter></defs></svg>