<svg width="52" height="54" fill="none" xmlns="http://www.w3.org/2000/svg"><path fill-rule="evenodd" clip-rule="evenodd" d="M16.04.004h24.28c1.327.32 1.813.943 1.82 2.345.002.177.002.354.002.53v.002c0 .22 0 .44.003.66.003.3.14.442.44.447.2.003.4.003.599.003.232 0 .465-.001.697.004 1.355.03 2.241.802 2.463 2.134.051.31.05.622.05.933v20.076c0 .618.301.927.904.928.2 0 .4 0 .6-.002.458-.002.915-.004 1.372.005 1.692.033 2.724 1.056 2.725 2.737.005 4.793.004 9.584.003 14.376v5.392c0 .717-.17 1.359-.677 1.903-.455.488-.99.708-1.656.708-11.26-.004-22.52-.004-33.778-.005H2.35c-1.166 0-2.036-.717-2.284-1.861C0 51.016 0 50.71 0 50.404V21.376c-.002-.29-.003-.58.07-.866.305-1.197 1.157-1.87 2.406-1.885.483-.006.967-.005 1.45-.004.261.001.522.002.782.001.597 0 .895-.29.895-.872l.003-1.867c.004-1.557.007-3.114-.01-4.67-.01-.797.246-1.42.816-1.986 2.696-2.669 5.374-5.356 8.052-8.043L15 .646c.3-.3.613-.556 1.036-.646l.003.004zm9.95 51.055h-4.617c-6.157-.001-12.313-.002-18.47.011-.517 0-.672-.117-.671-.656.017-9.65.017-19.299 0-28.949 0-.538.155-.66.671-.659 7.315.017 14.63.016 21.946.002.418 0 .645.133.852.492.665 1.16 1.338 2.315 2.011 3.47v.001a517.28 517.28 0 012.399 4.146c.553.97 1.32 1.42 2.445 1.415 2.86-.01 5.72-.011 8.58-.012 2.657 0 5.313 0 7.97-.009.526-.001.669.142.667.669a3604.74 3604.74 0 000 19.455c0 .505-.143.635-.64.634-6.35-.013-12.7-.012-19.05-.011h-4.088l-.004.001zm14.848-31.975c-.693.236-.882.494-.882 1.27v.435c-.004 2.328-.008 4.655.007 6.983.003.379-.076.492-.475.488a400.82 400.82 0 00-6.848-.003c-.374.003-.582-.11-.772-.44-.624-1.088-1.256-2.172-1.887-3.255-.845-1.45-1.69-2.9-2.518-4.36-.583-1.03-1.39-1.477-2.572-1.472-2.694.013-5.389.013-8.083.013-2.77 0-5.539 0-8.308.014-.55.003-.644-.161-.637-.663.03-2.023.021-4.046.005-6.068-.003-.36.092-.469.46-.466 1.881.014 3.762.011 5.643.008l.997-.001c1.544-.002 2.411-.866 2.414-2.4l.001-.95a589.82 589.82 0 00-.01-5.69c-.002-.357.075-.457.446-.457 7.227.013 14.455.012 21.683 0 .361 0 .463.097.46.46-.013 2.777-.01 5.554-.008 8.331l.001.642c0 .811.241 1.115.982 1.287l.001.004v-.001c.781-.099 1.083-.426 1.087-1.23.009-1.606.017-3.215-.006-4.822-.006-.412.112-.546.52-.51.377.036.762.033 1.14 0 .382-.03.457.13.457.478-.008 7.036-.008 14.073 0 21.109 0 .331-.078.474-.431.437a3.031 3.031 0 00-.612.024c-.382.041-.754.08-.98-.142-.213-.209-.166-.609-.12-1.007a4.2 4.2 0 00.038-.496 722.047 722.047 0 01-.003-3.291c0-1.012 0-2.025-.003-3.037-.002-.849-.345-1.187-1.187-1.222zm-.137-4.01c.035-.023.07-.045.104-.069.08.059.178.07.275.082a.945.945 0 01.17.031c.401.123.602.412.59.853-.014.444-.224.7-.65.799-.041.01-.085.014-.13.019-.09.01-.182.02-.256.075-.608-.375-.75-.65-.64-1.163.067-.32.302-.474.537-.627zm.137 4.009v.001-.001zm-14.203-8.378c-1.58 0-3.159-.001-4.738.002-.457 0-.806-.17-1.004-.59a.982.982 0 01.083-1.031c.225-.323.554-.455.938-.455h3.604c3.204-.001 6.407-.002 9.611.003.687 0 1.16.475 1.139 1.077-.022.598-.468.99-1.157.992-1.567.003-3.134.002-4.7.002h-3.776zm.001 4.15l1.895.001h1.977c1.536.002 3.072.002 4.607-.001.688-.002 1.135-.396 1.155-.993.021-.604-.452-1.078-1.14-1.078-3.203-.005-6.407-.004-9.61-.003h-3.605c-.384 0-.713.134-.937.457a.981.981 0 00-.084 1.03c.199.419.547.59 1.005.59 1.578-.004 3.158-.003 4.737-.002z" fill="#fff"/></svg>